<svg width="12" height="13" viewBox="0 0 12 13" fill="none" xmlns="http://www.w3.org/2000/svg">
<path d="M5.35124 9.22652L1.21505 4.82977C0.726914 4.31246 1.12363 3.5 1.86445 3.5H10.1368C10.3026 3.49987 10.465 3.54418 10.6044 3.62764C10.7438 3.71109 10.8544 3.83015 10.9229 3.97055C10.9914 4.11095 11.015 4.26674 10.9907 4.41927C10.9665 4.5718 10.8955 4.7146 10.7862 4.83057L6.65005 9.22572C6.5691 9.31187 6.46927 9.38091 6.35726 9.42822C6.24526 9.47552 6.12366 9.5 6.00064 9.5C5.87763 9.5 5.75603 9.47552 5.64402 9.42822C5.53202 9.38091 5.43219 9.31187 5.35124 9.22572V9.22652Z" fill="black"/>
</svg>
