<svg width="12" height="13" viewBox="0 0 12 13" fill="none" xmlns="http://www.w3.org/2000/svg">
<path d="M6.64876 3.77348L10.785 8.17023C11.2731 8.68754 10.8764 9.5 10.1355 9.5L1.86317 9.5C1.69737 9.50013 1.53505 9.45582 1.39563 9.37236C1.25622 9.28891 1.14563 9.16985 1.07711 9.02945C1.00858 8.88905 0.985028 8.73326 1.00926 8.58073C1.0335 8.4282 1.1045 8.2854 1.21376 8.16943L5.34995 3.77428C5.4309 3.68813 5.53073 3.61909 5.64273 3.57178C5.75474 3.52448 5.87634 3.5 5.99936 3.5C6.12237 3.5 6.24397 3.52448 6.35598 3.57178C6.46798 3.61909 6.56781 3.68813 6.64876 3.77428L6.64876 3.77348Z" fill="black"/>
</svg>
