<svg width="24" height="24" viewBox="0 0 24 24" fill="none" xmlns="http://www.w3.org/2000/svg">
<path d="M21.3756 21H2.62451C2.40127 21 2.19512 20.8775 2.08343 20.6783C1.97219 20.4789 1.97219 20.2338 2.08343 20.0346L11.4591 3.29899C11.6822 2.90034 12.3178 2.90034 12.5409 3.29899L21.9166 20.0346C22.0278 20.2338 22.0278 20.4789 21.9166 20.6783C21.805 20.8775 21.5987 21 21.3756 21ZM3.70621 19.7127H20.2938L12 4.9082L3.70621 19.7127Z" fill="black"/>
<path d="M12.2077 18.4499C12.0355 18.4499 11.8762 18.3857 11.755 18.265C11.6337 18.1436 11.5701 17.9841 11.5701 17.8123C11.5701 17.6466 11.6402 17.4804 11.755 17.3595C11.8186 17.3024 11.889 17.2575 11.9651 17.2257C12.2011 17.1235 12.4817 17.1809 12.6603 17.3595C12.775 17.4804 12.8452 17.6466 12.8452 17.8123C12.8452 17.9841 12.7815 18.1435 12.6603 18.265C12.5393 18.3857 12.3798 18.4499 12.2077 18.4499Z" fill="black"/>
<path d="M12.2077 15.8996C11.8556 15.8996 11.5701 15.6144 11.5701 15.262V8.24883C11.5701 7.8965 11.8556 7.6113 12.2077 7.6113C12.5598 7.6113 12.8452 7.8965 12.8452 8.24883V15.262C12.8452 15.6144 12.5598 15.8996 12.2077 15.8996Z" fill="black"/>
</svg>
