<svg width="28" height="28" viewBox="0 0 28 28" fill="none" xmlns="http://www.w3.org/2000/svg">
<path fill-rule="evenodd" clip-rule="evenodd" d="M12.9788 19H15.944H15.9446H18.9095C19.1354 20.1401 20.1179 21 21.2913 21C22.4647 21 23.4472 20.1401 23.6731 19H24.451C24.6854 19 24.8856 18.829 24.9284 18.592L25.6663 14.5C25.6663 12.019 23.7034 10 21.2913 10H18.3215L18.8496 7.61C18.8826 7.462 18.8476 7.306 18.7553 7.188C18.6629 7.069 18.5229 7 18.3751 7H6.70833C6.44 7 6.22221 7.224 6.22221 7.5C6.22221 7.776 6.44 8 6.70833 8H17.7656L17.2427 10.367C17.2407 10.3746 17.2388 10.3823 17.2371 10.39L15.5557 18H12.9788C12.7529 16.86 11.7704 16 10.597 16C9.4236 16 8.44113 16.8599 8.21525 17.9999H6.70833C6.44 17.9999 6.22221 18.2239 6.22221 18.4999C6.22221 18.7759 6.44 18.9999 6.70833 18.9999H8.21522C8.44105 20.14 9.42355 21 10.597 21C11.7704 21 12.7529 20.1401 12.9788 19ZM16.5538 18L18.1005 11H21.2913C23.1677 11 24.6941 12.57 24.7029 14.408L24.0476 18H23.6731C23.4472 16.86 22.4647 16 21.2913 16C20.1179 16 19.1354 16.86 18.9095 18H16.5538ZM8.65226 9.99994H4.76332C4.49498 9.99994 4.2772 9.77593 4.2772 9.49993C4.2772 9.22393 4.49498 8.99993 4.76332 8.99993H8.65226C8.92059 8.99993 9.13837 9.22393 9.13837 9.49993C9.13837 9.77593 8.92059 9.99994 8.65226 9.99994ZM22.7496 18.5L22.7497 18.496C22.7475 17.6708 22.094 17 21.2913 17C20.4873 17 19.8329 17.673 19.8329 18.5C19.8329 19.327 20.4873 20 21.2913 20C22.094 20 22.7475 19.3292 22.7497 18.504L22.7496 18.5ZM9.13871 18.5147C9.14639 19.3349 9.79772 20 10.597 20C11.401 20 12.0553 19.327 12.0553 18.5C12.0553 17.673 11.401 17 10.597 17C9.79772 17 9.1464 17.6651 9.13871 18.4853L9.13892 18.4999L9.13871 18.5147ZM3.30551 12.4999C3.30551 12.7759 3.52329 12.9999 3.79163 12.9999H8.6528C8.92114 12.9999 9.13892 12.7759 9.13892 12.4999C9.13892 12.2239 8.92114 11.9999 8.6528 11.9999H3.79163C3.52329 11.9999 3.30551 12.2239 3.30551 12.4999ZM8.65253 15.9999H2.81912C2.55079 15.9999 2.33301 15.7759 2.33301 15.4999C2.33301 15.2239 2.55079 14.9999 2.81912 14.9999H8.65253C8.92087 14.9999 9.13865 15.2239 9.13865 15.4999C9.13865 15.7759 8.92087 15.9999 8.65253 15.9999Z" fill="black"/>
</svg>
