<svg width="10" height="11" viewBox="0 0 10 11" fill="none" xmlns="http://www.w3.org/2000/svg">
<path d="M4.45928 7.7721L1.01246 4.10814C0.60568 3.67705 0.936276 3 1.55363 3H8.44728C8.58544 2.99989 8.72071 3.03682 8.83689 3.10636C8.95307 3.17591 9.04522 3.27512 9.10233 3.39212C9.15943 3.50912 9.17906 3.63895 9.15886 3.76606C9.13867 3.89317 9.0795 4.01217 8.98845 4.10881L5.54163 7.77143C5.47417 7.84322 5.39098 7.90076 5.29764 7.94018C5.2043 7.9796 5.10297 8 5.00045 8C4.89794 8 4.79661 7.9796 4.70327 7.94018C4.60993 7.90076 4.52674 7.84322 4.45928 7.77143V7.7721Z" fill="black"/>
</svg>
