<svg width="20" height="19" viewBox="0 0 20 19" fill="none" xmlns="http://www.w3.org/2000/svg">
<path d="M15.465 19C15.2703 18.9994 15.0763 18.9787 14.8861 18.9381C11.2665 18.2107 7.93176 16.505 5.26585 14.0176C2.65684 11.5246 0.847349 8.35056 0.0563121 4.87942C-0.036961 4.44681 -0.0140681 3.99816 0.122788 3.57664C0.259645 3.15512 0.505859 2.7749 0.837743 2.47258L3.1531 0.307539C3.27136 0.198886 3.41187 0.115682 3.56547 0.0633574C3.71907 0.0110325 3.8823 -0.00923727 4.04451 0.003871C4.2127 0.0209174 4.375 0.0735533 4.52 0.158077C4.66501 0.242601 4.78919 0.35696 4.88382 0.493113L7.77801 4.64886C7.88654 4.81011 7.93894 5.00094 7.92747 5.19329C7.91601 5.38563 7.8413 5.56931 7.71434 5.71732L6.26146 7.40436C6.84009 8.64853 7.65955 9.77301 8.67521 10.7166C9.6843 11.6944 10.877 12.4752 12.1888 13.0166L13.9889 11.6276C14.1401 11.5115 14.3241 11.4429 14.5164 11.4308C14.7087 11.4188 14.9003 11.4639 15.0656 11.5601L19.4358 14.3044C19.5858 14.3914 19.7135 14.5102 19.8095 14.652C19.9055 14.7937 19.9672 14.9548 19.9901 15.123C20.0129 15.2913 19.9962 15.4623 19.9414 15.6234C19.8865 15.7845 19.7948 15.9315 19.6731 16.0533L17.4157 18.2239C17.1592 18.4718 16.8549 18.668 16.5201 18.8012C16.1853 18.9344 15.8267 19.0019 15.465 19ZM3.95189 1.11732L1.63654 3.28236C1.44984 3.45137 1.31163 3.66468 1.23551 3.90132C1.15939 4.13796 1.14799 4.38977 1.20241 4.63199C1.93795 7.88918 3.62874 10.8697 6.07044 13.2134C8.57924 15.5536 11.7174 17.1579 15.1235 17.8415C15.3813 17.8939 15.6484 17.8833 15.901 17.8107C16.1536 17.738 16.3836 17.6056 16.5706 17.4254L18.828 15.2547L14.6083 12.6061L12.675 14.1019C12.601 14.1588 12.5138 14.1973 12.4209 14.2139C12.3281 14.2306 12.2325 14.225 12.1424 14.1975C10.5372 13.6229 9.0824 12.7108 7.8822 11.5264C6.6408 10.4001 5.67719 9.01605 5.06326 7.47746C5.03729 7.38432 5.03643 7.28625 5.06076 7.19269C5.08508 7.09912 5.13379 7.01322 5.20218 6.94324L6.76504 5.12685L3.95189 1.11732Z" fill="black"/>
</svg>
