<svg width="16" height="16" viewBox="0 0 16 16" fill="none" xmlns="http://www.w3.org/2000/svg">
<path fill-rule="evenodd" clip-rule="evenodd" d="M9.8488 10.7819C8.95494 11.4768 7.83174 11.8906 6.6119 11.8906C3.69658 11.8906 1.33325 9.52722 1.33325 6.6119C1.33325 3.69658 3.69658 1.33325 6.6119 1.33325C9.52722 1.33325 11.8906 3.69658 11.8906 6.6119C11.8906 7.83174 11.4768 8.95494 10.7819 9.8488L14.6666 13.7334L13.7334 14.6666L9.8488 10.7819ZM10.5709 6.6119C10.5709 8.79839 8.79839 10.5709 6.6119 10.5709C4.42541 10.5709 2.65291 8.79839 2.65291 6.6119C2.65291 4.42541 4.42541 2.65291 6.6119 2.65291C8.79839 2.65291 10.5709 4.42541 10.5709 6.6119Z" fill="black"/>
</svg>
