<svg xmlns="http://www.w3.org/2000/svg">
	<symbol id="cart" viewBox="0 0 20 24">
		<path fill-rule="evenodd" clip-rule="evenodd" d="M0.666748 23.6666H19.3334V6.42445H14.4211V5.05088C14.4211 1.70783 11.9817 0.333252 10.0001 0.333252C7.81313 0.333252 5.57903 1.54134 5.57903 5.05088V6.42445H2.63166L0.666748 6.41937V23.6666ZM2.63166 8.45484V21.6372H17.3685V8.45484H2.63166ZM7.54394 6.42445H12.4562V5.51381C12.4562 3.44281 11.9719 2.26213 10.0001 2.26213C8.03517 2.26213 7.54394 3.44382 7.54394 5.51381V6.42445Z" fill="black" />
	</symbol>
	<symbol id="search" viewBox="0 0 16 16">
		<path fill-rule="evenodd" clip-rule="evenodd" d="M9.8488 10.7819C8.95494 11.4768 7.83174 11.8906 6.6119 11.8906C3.69658 11.8906 1.33325 9.52722 1.33325 6.6119C1.33325 3.69658 3.69658 1.33325 6.6119 1.33325C9.52722 1.33325 11.8906 3.69658 11.8906 6.6119C11.8906 7.83174 11.4768 8.95494 10.7819 9.8488L14.6666 13.7334L13.7334 14.6666L9.8488 10.7819ZM10.5709 6.6119C10.5709 8.79839 8.79839 10.5709 6.6119 10.5709C4.42541 10.5709 2.65291 8.79839 2.65291 6.6119C2.65291 4.42541 4.42541 2.65291 6.6119 2.65291C8.79839 2.65291 10.5709 4.42541 10.5709 6.6119Z" fill="black" />
	</symbol>
	<symbol id="down" viewBox="0 0 10 11">
		<path d="M4.45928 7.7721L1.01246 4.10814C0.60568 3.67705 0.936276 3 1.55363 3H8.44728C8.58544 2.99989 8.72071 3.03682 8.83689 3.10636C8.95307 3.17591 9.04522 3.27512 9.10233 3.39212C9.15943 3.50912 9.17906 3.63895 9.15886 3.76606C9.13867 3.89317 9.0795 4.01217 8.98845 4.10881L5.54163 7.77143C5.47417 7.84322 5.39098 7.90076 5.29764 7.94018C5.2043 7.9796 5.10297 8 5.00045 8C4.89794 8 4.79661 7.9796 4.70327 7.94018C4.60993 7.90076 4.52674 7.84322 4.45928 7.77143V7.7721Z" fill="black" />
	</symbol>
</svg>
