<svg width="180" height="20" viewBox="0 0 180 20" fill="none" xmlns="http://www.w3.org/2000/svg">
<path d="M20.006 9.66942V10.9917C20.006 13.6364 19.1212 15.8035 17.3516 17.4931C15.5819 19.1644 13.2721 20 10.4221 20C7.40445 20 4.90836 19.0358 2.93384 17.1074C0.977946 15.1791 0 12.8099 0 10C0 7.20845 0.977946 4.84848 2.93384 2.92011C4.90836 0.97337 7.34857 0 10.2545 0C12.08 0 13.7471 0.413223 15.256 1.23967C16.7648 2.06612 17.9383 3.17723 18.7766 4.573L16.0104 6.14325C15.4888 5.22498 14.7158 4.49036 13.6913 3.93939C12.6667 3.37007 11.5211 3.0854 10.2545 3.0854C8.20544 3.0854 6.51964 3.74656 5.19709 5.06887C3.87453 6.39118 3.21325 8.04408 3.21325 10.0275C3.21325 12.011 3.87453 13.6547 5.19709 14.9587C6.53827 16.2626 8.28926 16.9146 10.4501 16.9146C12.1824 16.9146 13.5888 16.5197 14.6692 15.73C15.7682 14.9219 16.4668 13.8476 16.7648 12.5069H10.2265V9.66942H20.006Z" fill="black"/>
<path d="M30.9268 0.358127H34.14V19.6419H30.9268V0.358127Z" fill="black"/>
<path d="M53.7156 0.358127C56.398 0.358127 58.624 1.28558 60.3936 3.1405C62.1819 4.99541 63.076 7.28191 63.076 10C63.076 12.6997 62.1819 14.9862 60.3936 16.8595C58.624 18.7144 56.398 19.6419 53.7156 19.6419H46.0318V0.358127H53.7156ZM53.7156 16.6116C55.5598 16.6116 57.0593 15.9871 58.2142 14.7383C59.3877 13.4894 59.9745 11.91 59.9745 10C59.9745 8.07162 59.3877 6.4922 58.2142 5.26171C57.0593 4.01286 55.5598 3.38843 53.7156 3.38843H49.245V16.6116H53.7156Z" fill="black"/>
<path d="M79.7623 20C77.8809 20 76.2789 19.5776 74.9564 18.7328C73.6525 17.888 72.7397 16.7309 72.2181 15.2617L74.9843 13.6639C75.7667 15.831 77.3873 16.9146 79.8461 16.9146C81.0569 16.9146 81.9603 16.685 82.5564 16.2259C83.1711 15.7484 83.4785 15.1332 83.4785 14.3802C83.4785 13.5905 83.1525 12.9936 82.5005 12.5895C81.8486 12.1671 80.6937 11.708 79.0358 11.2121C78.1044 10.9366 77.35 10.6795 76.7726 10.4408C76.1951 10.202 75.5804 9.87144 74.9284 9.44904C74.2951 9.00826 73.8201 8.46648 73.5034 7.82369C73.1868 7.1809 73.0284 6.42792 73.0284 5.56474C73.0284 3.85675 73.6431 2.50689 74.8726 1.51515C76.102 0.50505 77.5829 0 79.3152 0C80.8799 0 82.2491 0.376492 83.4226 1.12948C84.5961 1.88246 85.4996 2.92011 86.1329 4.24242L83.4226 5.78512C82.603 3.98531 81.2339 3.0854 79.3152 3.0854C78.3839 3.0854 77.6387 3.30579 77.0799 3.74656C76.5211 4.16896 76.2417 4.74748 76.2417 5.48209C76.2417 6.19835 76.5211 6.76768 77.0799 7.19008C77.6574 7.59412 78.6912 8.02571 80.1814 8.48485C80.9265 8.7236 81.4667 8.90725 81.802 9.03581C82.1559 9.14601 82.6402 9.32966 83.255 9.58678C83.8883 9.84389 84.3633 10.101 84.68 10.3581C84.9966 10.6152 85.3319 10.9366 85.6858 11.3223C86.0584 11.708 86.3192 12.1488 86.4682 12.6446C86.6172 13.1405 86.6917 13.7006 86.6917 14.3251C86.6917 16.0698 86.0491 17.4564 84.7638 18.4848C83.4971 19.4949 81.8299 20 79.7623 20Z" fill="black"/>
<path d="M109.447 0.358127V3.38843H103.943V19.6419H100.73V3.38843H95.1971V0.358127H109.447Z" fill="black"/>
<path d="M132.352 18.1818C130.974 19.3939 129.195 20 127.015 20C124.836 20 123.057 19.3939 121.679 18.1818C120.3 16.9513 119.611 15.3076 119.611 13.2507V0.358127H122.824V13.0579C122.824 14.2332 123.169 15.1699 123.858 15.8678C124.566 16.5657 125.618 16.9146 127.015 16.9146C128.412 16.9146 129.456 16.5657 130.145 15.8678C130.853 15.1699 131.207 14.2332 131.207 13.0579V0.358127H134.42V13.2507C134.42 15.3076 133.731 16.9513 132.352 18.1818Z" fill="black"/>
<path d="M157.555 3.38843H149.312V8.78788H157.276V11.8182H149.312V19.6419H146.099V0.358127H157.555V3.38843Z" fill="black"/>
<path d="M180 3.38843H171.757V8.78788H179.721V11.8182H171.757V19.6419H168.544V0.358127H180V3.38843Z" fill="black"/>
</svg>
