<svg width="32" height="32" viewBox="0 0 32 32" fill="none" xmlns="http://www.w3.org/2000/svg">
<path d="M19.0625 16C19.0625 17.6914 17.6914 19.0625 16 19.0625C14.3086 19.0625 12.9375 17.6914 12.9375 16C12.9375 14.3086 14.3086 12.9375 16 12.9375C17.6914 12.9375 19.0625 14.3086 19.0625 16Z" fill="white"/>
<path d="M23.1631 10.5815C23.0159 10.1826 22.781 9.82153 22.4758 9.52515C22.1794 9.21997 21.8186 8.98511 21.4194 8.83789C21.0957 8.71216 20.6094 8.5625 19.7136 8.52173C18.7446 8.47754 18.4541 8.46802 16.001 8.46802C13.5476 8.46802 13.2571 8.47729 12.2883 8.52148C11.3926 8.5625 10.906 8.71216 10.5825 8.83789C10.1833 8.98511 9.82227 9.21997 9.52612 9.52515C9.22095 9.82153 8.98608 10.1824 8.83862 10.5815C8.71289 10.9053 8.56323 11.3918 8.52246 12.2876C8.47827 13.2563 8.46875 13.5469 8.46875 16.0002C8.46875 18.4534 8.47827 18.7439 8.52246 19.7129C8.56323 20.6086 8.71289 21.095 8.83862 21.4187C8.98608 21.8179 9.2207 22.1787 9.52588 22.4751C9.82227 22.7803 10.1831 23.0151 10.5823 23.1624C10.906 23.2883 11.3926 23.438 12.2883 23.4788C13.2571 23.5229 13.5474 23.5322 16.0007 23.5322C18.4543 23.5322 18.7449 23.5229 19.7134 23.4788C20.6091 23.438 21.0957 23.2883 21.4194 23.1624C22.2207 22.8533 22.854 22.22 23.1631 21.4187C23.2888 21.095 23.4385 20.6086 23.4795 19.7129C23.5237 18.7439 23.533 18.4534 23.533 16.0002C23.533 13.5469 23.5237 13.2563 23.4795 12.2876C23.4387 11.3918 23.2891 10.9053 23.1631 10.5815ZM16.001 20.7178C13.3953 20.7178 11.283 18.6057 11.283 16C11.283 13.3943 13.3953 11.2822 16.001 11.2822C18.6064 11.2822 20.7188 13.3943 20.7188 16C20.7188 18.6057 18.6064 20.7178 16.001 20.7178ZM20.9053 12.1982C20.2964 12.1982 19.8027 11.7046 19.8027 11.0957C19.8027 10.4868 20.2964 9.99316 20.9053 9.99316C21.5142 9.99316 22.0078 10.4868 22.0078 11.0957C22.0076 11.7046 21.5142 12.1982 20.9053 12.1982Z" fill="white"/>
<path d="M16 0C7.16479 0 0 7.16479 0 16C0 24.8352 7.16479 32 16 32C24.8352 32 32 24.8352 32 16C32 7.16479 24.8352 0 16 0ZM25.1321 19.7878C25.0876 20.7659 24.9321 21.4336 24.7051 22.0181C24.2278 23.2522 23.2522 24.2278 22.0181 24.7051C21.4338 24.9321 20.7659 25.0874 19.7881 25.1321C18.8083 25.1768 18.4954 25.1875 16.0002 25.1875C13.5049 25.1875 13.1921 25.1768 12.2122 25.1321C11.2344 25.0874 10.5664 24.9321 9.98218 24.7051C9.3689 24.4744 8.81372 24.1128 8.35474 23.6453C7.88745 23.1865 7.52588 22.6311 7.29517 22.0181C7.06812 21.4338 6.9126 20.7659 6.86816 19.7881C6.823 18.8081 6.8125 18.4951 6.8125 16C6.8125 13.5049 6.823 13.1919 6.86792 12.2122C6.91235 11.2341 7.06763 10.5664 7.29468 9.98193C7.52539 9.3689 7.88721 8.81348 8.35474 8.35474C8.81348 7.88721 9.3689 7.52563 9.98193 7.29492C10.5664 7.06787 11.2341 6.9126 12.2122 6.86792C13.1919 6.82324 13.5049 6.8125 16 6.8125C18.4951 6.8125 18.8081 6.82324 19.7878 6.86816C20.7659 6.9126 21.4336 7.06787 22.0181 7.29468C22.6311 7.52539 23.1865 7.88721 23.6455 8.35474C24.1128 8.81372 24.4746 9.3689 24.7051 9.98193C24.9324 10.5664 25.0876 11.2341 25.1323 12.2122C25.177 13.1919 25.1875 13.5049 25.1875 16C25.1875 18.4951 25.177 18.8081 25.1321 19.7878Z" fill="white"/>
</svg>
