<svg width="32" height="32" viewBox="0 0 32 32" fill="none" xmlns="http://www.w3.org/2000/svg">
<path fill-rule="evenodd" clip-rule="evenodd" d="M32 16C32 24.8366 24.8366 32 16 32C7.16344 32 0 24.8366 0 16C0 7.16344 7.16344 0 16 0C24.8366 0 32 7.16344 32 16ZM20.2704 18.875C19.6205 18.4978 18.9588 18.7325 18.6852 19.1032L18.1129 19.8458C17.8222 20.223 17.2788 20.1729 17.2788 20.1729C13.3138 19.1216 12.2534 14.9616 12.2534 14.9616C12.2534 14.9616 12.2048 14.3984 12.5679 14.0963L13.2835 13.5028C13.6413 13.2179 13.8676 12.532 13.5032 11.858C12.7692 10.5283 12.2169 9.8555 11.8469 9.4048C11.7262 9.25777 11.6249 9.13438 11.543 9.01952C11.1931 8.5803 10.6669 8.48137 10.1196 8.77815H10.1078C8.96983 9.44555 7.72401 10.6946 8.12262 11.9806C8.24055 12.2158 8.37562 12.5401 8.5391 12.9326C9.31838 14.8038 10.7433 18.2252 14.036 20.9247C15.908 22.4692 18.8706 24.052 20.1283 24.4174L20.1402 24.4358C21.3794 24.85 22.5844 23.5521 23.2277 22.3769V22.3677C23.5132 21.7992 23.4185 21.261 23.0015 20.9089C22.2621 20.1861 21.1465 19.3881 20.2704 18.875ZM15.9151 8.46831C15.4043 8.46173 15.4043 7.6725 15.9151 7.6725C20.346 7.70276 23.9093 10.8413 23.9517 16.2541H23.953C23.9597 16.7842 23.177 16.7908 23.177 16.2607C23.1411 11.2372 19.8777 8.49856 15.9151 8.46831ZM21.1022 15.3215C21.09 15.8364 21.8865 15.8609 21.8932 15.3396C21.9595 12.4046 20.0677 9.98704 16.5125 9.73222C15.9919 9.696 15.9378 10.4786 16.4571 10.5148C19.5403 10.7386 21.1644 12.7513 21.1022 15.3215ZM19.0864 14.7882C19.0224 13.4673 18.4254 12.8242 17.1943 12.7525C16.6959 12.723 16.742 11.948 17.2353 11.9774C18.8545 12.0671 19.7538 13.0279 19.8358 14.7523C19.8589 15.2686 19.1095 15.3044 19.0864 14.7882Z" fill="white"/>
</svg>
